# xmcd CD database file
#
# Track frame offsets:
#	150
#	20608
#	39417
#
# Disc length: 756 seconds
#
# Revision: 0
# Processed by: cddbd v1.5.1PL2 Copyright (c) Steve Scherf et al.
# Submitted via: CDex 1.51
#
DISCID=1b02f203
DTITLE=ナチュラル ハイ - NO PIANO NO LIFE
DYEAR=2006
DGENRE=Jazz
TTITLE0=NO PIANO NO LIFE
TTITLE1=恋愛リミット
TTITLE2=NO PIANO NO LIFE (piano session KW009)
EXTD=YEAR: 2006.01.11
EXTT0=
EXTT1=
EXTT2=
PLAYORDER=
